HIERARCHY
ROOT Hips
{
  OFFSET -21.7848 93.0946 1805.31
  CHANNELS 6 Xposition Yposition Zposition Zrotation Xrotation Yrotation
  JOINT Spine
  {
    OFFSET 0 8 0
    CHANNELS 6 Xposition Yposition Zposition Zrotation Xrotation Yrotation
    JOINT Spine1
    {
      OFFSET 0 8 0
      CHANNELS 6 Xposition Yposition Zposition Zrotation Xrotation Yrotation
      JOINT Spine2
      {
        OFFSET 0 8 0
        CHANNELS 6 Xposition Yposition Zposition Zrotation Xrotation Yrotation
        JOINT Spine3
        {
          OFFSET 0 8 0
          CHANNELS 6 Xposition Yposition Zposition Zrotation Xrotation Yrotation
          JOINT Neck
          {
            OFFSET 0 17 0
            CHANNELS 6 Xposition Yposition Zposition Zrotation Xrotation Yrotation
            JOINT Head
            {
              OFFSET 0 10.8 0
              CHANNELS 6 Xposition Yposition Zposition Zrotation Xrotation Yrotation
              End Site
              {
                OFFSET 0 20.25 0
              }
            }
          }
          JOINT LeftShoulder
          {
            OFFSET 5 17 0
            CHANNELS 6 Xposition Yposition Zposition Zrotation Xrotation Yrotation
            JOINT LeftShoulder2
            {
              OFFSET 6.45 0 0
              CHANNELS 6 Xposition Yposition Zposition Zrotation Xrotation Yrotation
              JOINT LeftArm
              {
                OFFSET 6.45 0 0
                CHANNELS 6 Xposition Yposition Zposition Zrotation Xrotation Yrotation
                JOINT LeftForeArm
                {
                  OFFSET 0 -32.4 -2
                  CHANNELS 6 Xposition Yposition Zposition Zrotation Xrotation Yrotation
                  JOINT LeftHand
                  {
                    OFFSET 0 -25.65 2
                    CHANNELS 6 Xposition Yposition Zposition Zrotation Xrotation Yrotation
                    JOINT LeftHandThumb1
                    {
                      OFFSET -0.5 -1.5 2.65
                      CHANNELS 6 Xposition Yposition Zposition Zrotation Xrotation Yrotation
                      JOINT LeftHandThumb2
                      {
                        OFFSET 0 -3.8 3.7
                        CHANNELS 6 Xposition Yposition Zposition Zrotation Xrotation Yrotation
                        JOINT LeftHandThumb3
                        {
                          OFFSET 0 -3 2.7
                          CHANNELS 6 Xposition Yposition Zposition Zrotation Xrotation Yrotation
                          End Site
                          {
                            OFFSET 0 -2.3 1.8
                          }
                        }
                      }
                    }
                    JOINT LeftHandIndex
                    {
                      OFFSET 0 -1.9 1.6
                      CHANNELS 6 Xposition Yposition Zposition Zrotation Xrotation Yrotation
                      JOINT LeftHandIndex1
                      {
                        OFFSET 0 -8.3 1.9
                        CHANNELS 6 Xposition Yposition Zposition Zrotation Xrotation Yrotation
                        JOINT LeftHandIndex2
                        {
                          OFFSET 0 -4.5 0
                          CHANNELS 6 Xposition Yposition Zposition Zrotation Xrotation Yrotation
                          JOINT LeftHandIndex3
                          {
                            OFFSET 0 -3.4 0
                            CHANNELS 6 Xposition Yposition Zposition Zrotation Xrotation Yrotation
                            End Site
                            {
                              OFFSET 0 -2.6 0
                            }
                          }
                        }
                      }
                    }
                    JOINT LeftHandMiddle
                    {
                      OFFSET -0.25 -2.2 0.4
                      CHANNELS 6 Xposition Yposition Zposition Zrotation Xrotation Yrotation
                      JOINT LeftHandMiddle1
                      {
                        OFFSET 0 -8.3 1
                        CHANNELS 6 Xposition Yposition Zposition Zrotation Xrotation Yrotation
                        JOINT LeftHandMiddle2
                        {
                          OFFSET 0 -4.65 0
                          CHANNELS 6 Xposition Yposition Zposition Zrotation Xrotation Yrotation
                          JOINT LeftHandMiddle3
                          {
                            OFFSET 0 -3.3 0
                            CHANNELS 6 Xposition Yposition Zposition Zrotation Xrotation Yrotation
                            End Site
                            {
                              OFFSET 0 -2.7 0
                            }
                          }
                        }
                      }
                    }
                    JOINT LeftHandRing
                    {
                      OFFSET -0.5 -2.15 -0.8
                      CHANNELS 6 Xposition Yposition Zposition Zrotation Xrotation Yrotation
                      JOINT LeftHandRing1
                      {
                        OFFSET 0 -7.75 -0.2
                        CHANNELS 6 Xposition Yposition Zposition Zrotation Xrotation Yrotation
                        JOINT LeftHandRing2
                        {
                          OFFSET 0 -3.8 0
                          CHANNELS 6 Xposition Yposition Zposition Zrotation Xrotation Yrotation
                          JOINT LeftHandRing3
                          {
                            OFFSET 0 -3.4 0
                            CHANNELS 6 Xposition Yposition Zposition Zrotation Xrotation Yrotation
                            End Site
                            {
                              OFFSET 0 -2.6 0
                            }
                          }
                        }
                      }
                    }
                    JOINT LeftHandPinky
                    {
                      OFFSET -0.75 -1.75 -1.85
                      CHANNELS 6 Xposition Yposition Zposition Zrotation Xrotation Yrotation
                      JOINT LeftHandPinky1
                      {
                        OFFSET 0 -7.15 -1
                        CHANNELS 6 Xposition Yposition Zposition Zrotation Xrotation Yrotation
                        JOINT LeftHandPinky2
                        {
                          OFFSET 0 -3 0
                          CHANNELS 6 Xposition Yposition Zposition Zrotation Xrotation Yrotation
                          JOINT LeftHandPinky3
                          {
                            OFFSET 0 -2.35 0
                            CHANNELS 6 Xposition Yposition Zposition Zrotation Xrotation Yrotation
                            End Site
                            {
                              OFFSET 0 -2.1 0
                            }
                          }
                        }
                      }
                    }
                  }
                }
              }
            }
          }
          JOINT RightShoulder
          {
            OFFSET -5 17 0
            CHANNELS 6 Xposition Yposition Zposition Zrotation Xrotation Yrotation
            JOINT RightShoulder2
            {
              OFFSET -6.45 0 0
              CHANNELS 6 Xposition Yposition Zposition Zrotation Xrotation Yrotation
              JOINT RightArm
              {
                OFFSET -6.45 0 0
                CHANNELS 6 Xposition Yposition Zposition Zrotation Xrotation Yrotation
                JOINT RightForeArm
                {
                  OFFSET 0 -32.4 -2
                  CHANNELS 6 Xposition Yposition Zposition Zrotation Xrotation Yrotation
                  JOINT RightHand
                  {
                    OFFSET 0 -25.65 2
                    CHANNELS 6 Xposition Yposition Zposition Zrotation Xrotation Yrotation
                    JOINT RightHandThumb1
                    {
                      OFFSET 0.5 -1.5 2.65
                      CHANNELS 6 Xposition Yposition Zposition Zrotation Xrotation Yrotation
                      JOINT RightHandThumb2
                      {
                        OFFSET 0 -3.8 3.7
                        CHANNELS 6 Xposition Yposition Zposition Zrotation Xrotation Yrotation
                        JOINT RightHandThumb3
                        {
                          OFFSET 0 -3 2.7
                          CHANNELS 6 Xposition Yposition Zposition Zrotation Xrotation Yrotation
                          End Site
                          {
                            OFFSET 0 -2.3 1.8
                          }
                        }
                      }
                    }
                    JOINT RightHandIndex
                    {
                      OFFSET 0 -1.9 1.6
                      CHANNELS 6 Xposition Yposition Zposition Zrotation Xrotation Yrotation
                      JOINT RightHandIndex1
                      {
                        OFFSET 0 -8.3 1.9
                        CHANNELS 6 Xposition Yposition Zposition Zrotation Xrotation Yrotation
                        JOINT RightHandIndex2
                        {
                          OFFSET 0 -4.5 0
                          CHANNELS 6 Xposition Yposition Zposition Zrotation Xrotation Yrotation
                          JOINT RightHandIndex3
                          {
                            OFFSET 0 -3.4 0
                            CHANNELS 6 Xposition Yposition Zposition Zrotation Xrotation Yrotation
                            End Site
                            {
                              OFFSET 0 -2.6 0
                            }
                          }
                        }
                      }
                    }
                    JOINT RightHandMiddle
                    {
                      OFFSET 0.25 -2.2 0.4
                      CHANNELS 6 Xposition Yposition Zposition Zrotation Xrotation Yrotation
                      JOINT RightHandMiddle1
                      {
                        OFFSET 0 -8.3 1
                        CHANNELS 6 Xposition Yposition Zposition Zrotation Xrotation Yrotation
                        JOINT RightHandMiddle2
                        {
                          OFFSET 0 -4.65 0
                          CHANNELS 6 Xposition Yposition Zposition Zrotation Xrotation Yrotation
                          JOINT RightHandMiddle3
                          {
                            OFFSET 0 -3.3 0
                            CHANNELS 6 Xposition Yposition Zposition Zrotation Xrotation Yrotation
                            End Site
                            {
                              OFFSET 0 -2.7 0
                            }
                          }
                        }
                      }
                    }
                    JOINT RightHandRing
                    {
                      OFFSET 0.5 -2.15 -0.8
                      CHANNELS 6 Xposition Yposition Zposition Zrotation Xrotation Yrotation
                      JOINT RightHandRing1
                      {
                        OFFSET 0 -7.75 -0.2
                        CHANNELS 6 Xposition Yposition Zposition Zrotation Xrotation Yrotation
                        JOINT RightHandRing2
                        {
                          OFFSET 0 -3.8 0
                          CHANNELS 6 Xposition Yposition Zposition Zrotation Xrotation Yrotation
                          JOINT RightHandRing3
                          {
                            OFFSET 0 -3.4 0
                            CHANNELS 6 Xposition Yposition Zposition Zrotation Xrotation Yrotation
                            End Site
                            {
                              OFFSET 0 -2.6 0
                            }
                          }
                        }
                      }
                    }
                    JOINT RightHandPinky
                    {
                      OFFSET 0.75 -1.75 -1.85
                      CHANNELS 6 Xposition Yposition Zposition Zrotation Xrotation Yrotation
                      JOINT RightHandPinky1
                      {
                        OFFSET 0 -7.15 -1
                        CHANNELS 6 Xposition Yposition Zposition Zrotation Xrotation Yrotation
                        JOINT RightHandPinky2
                        {
                          OFFSET 0 -3 0
                          CHANNELS 6 Xposition Yposition Zposition Zrotation Xrotation Yrotation
                          JOINT RightHandPinky3
                          {
                            OFFSET 0 -2.35 0
                            CHANNELS 6 Xposition Yposition Zposition Zrotation Xrotation Yrotation
                            End Site
                            {
                              OFFSET 0 -2.1 0
                            }
                          }
                        }
                      }
                    }
                  }
                }
              }
            }
          }
        }
      }
    }
  }
  JOINT LeftUpLeg
  {
    OFFSET 8 0 0
    CHANNELS 6 Xposition Yposition Zposition Zrotation Xrotation Yrotation
    JOINT LeftLeg
    {
      OFFSET 0 -45 -1
      CHANNELS 6 Xposition Yposition Zposition Zrotation Xrotation Yrotation
      JOINT LeftFoot
      {
        OFFSET 0 -41 -2
        CHANNELS 6 Xposition Yposition Zposition Zrotation Xrotation Yrotation
        JOINT LeftToeBase
        {
          OFFSET 0 -7.5 12.5
          CHANNELS 6 Xposition Yposition Zposition Zrotation Xrotation Yrotation
          JOINT LeftFootToe
          {
            OFFSET 0 0 4
            CHANNELS 6 Xposition Yposition Zposition Zrotation Xrotation Yrotation
            End Site
            {
              OFFSET 0 0 0
            }
          }
        }
      }
    }
  }
  JOINT RightUpLeg
  {
    OFFSET -8 0 0
    CHANNELS 6 Xposition Yposition Zposition Zrotation Xrotation Yrotation
    JOINT RightLeg
    {
      OFFSET 0 -45 -1
      CHANNELS 6 Xposition Yposition Zposition Zrotation Xrotation Yrotation
      JOINT RightFoot
      {
        OFFSET 0 -41 -2
        CHANNELS 6 Xposition Yposition Zposition Zrotation Xrotation Yrotation
        JOINT RightToeBase
        {
          OFFSET 0 -7.5 12.5
          CHANNELS 6 Xposition Yposition Zposition Zrotation Xrotation Yrotation
          JOINT RightFootToe
          {
            OFFSET 0 0 4
            CHANNELS 6 Xposition Yposition Zposition Zrotation Xrotation Yrotation
            End Site
            {
              OFFSET 0 0 0
            }
          }
        }
      }
    }
  }
}
MOTION
Frames:	3
Frame Time:	0.0111111
-261.378 72.5326 1591.16 -1.47076 7.81699 -176.283 0 8 0 4.30492 11.2569 -12.8563 -2.84217e-14 8 0 0.287374 8.66427 -0.597705 2.84217e-14 8 0 0.130396 4.33549 -0.291423 -5.68434e-14 8 -2.27374e-13 0.129988 4.32305 -0.290571 0 17 0 -1.95291 9.99409 -1.04804 2.84217e-14 10.8 0 -4.44617 23.5044 -1.9696 5 17 0 -5.727 -5.1137 7.94402 6.45 -5.68434e-14 -2.27374e-13 -0.531699 -1.58081 1.28451 6.45 0 0 69.5888 14.59 6.15299 -2.84217e-14 -32.4 -2 -102.435 -62.2684 -107.148 1.13687e-13 -25.65 2 10.6883 -13.5022 -23.8267 -0.5 -1.5 2.65 -30.4485 -54.5822 113.869 -5.68434e-14 -3.8 3.7 -0.0356389 45.0373 9.6058e-05 0 -3 2.7 -0.00948745 67.4499 0.00846213 0 -1.9 1.6 6.36111e-15 -1.59028e-15 -7.95139e-16 0 -8.3 1.9 -55.6124 13.4605 8.40627 0 -4.5 0 -74.2002 0.00455804 -0.00256595 0 -3.4 0 -57.0896 -0.000706037 -0.00903437 -0.25 -2.2 0.4 6.36111e-15 -1.59028e-15 -7.95139e-16 0 -8.3 1 -55.7421 11.4156 8.35933 2.27374e-13 -4.65 5.68434e-14 -76.075 -0.00138225 6.04508e-05 0 -3.3 -5.68434e-14 -90.0002 2.98177e-16 7.35503e-15 -0.5 -2.15 -0.8 6.36111e-15 -1.59028e-15 -7.95139e-16 1.13687e-13 -7.75 -0.2 -80.18 -2.03628 10.5881 0 -3.8 0 -20.3965 -0.00305881 0.00428114 2.27374e-13 -3.4 -5.68434e-14 -90.0002 -2.5842e-14 9.34288e-15 -0.75 -1.75 -1.85 6.36111e-15 -1.59028e-15 -7.95139e-16 -1.13687e-13 -7.15 -1 -61.6374 10.5341 11.1417 2.27374e-13 -3 0 -77.2931 0.013852 6.79906e-05 0 -2.35 0 -90.0002 1.92821e-14 -1.98785e-15 -5 17 0 7.02881 -2.03289 -1.41844 -6.45 0 2.27374e-13 -1.81354 0.159367 -1.4495 -6.45 5.68434e-14 0 -53.4352 -27.3355 8.23629 0 -32.4 -2 100.378 -69.7212 87.3408 0 -25.65 2 -42.0148 13.9193 10.78 0.5 -1.5 2.65 4.59733 1.85334 -5.94954 2.84217e-14 -3.8 3.7 0.264373 7.83823 -0.116992 2.84217e-14 -3 2.7 0.0199656 11.2755 -0.031132 0 -1.9 1.6 -3.97569e-15 -3.18055e-15 3.37934e-15 -1.42109e-14 -8.3 1.9 13.5294 16.1213 -2.10796 0 -4.5 0 2.00414e-08 -0.00109005 0.00105343 0 -3.4 -1.13687e-13 1.49152e-08 -0.000829538 0.00103019 0.25 -2.2 0.4 -3.97569e-15 -3.18055e-15 3.37934e-15 1.42109e-14 -8.3 1 22.4946 13.7541 -3.953 0 -4.65 0 25.5946 0.00352434 -0.00263418 -2.27374e-13 -3.3 1.13687e-13 19.4242 0.00901003 -0.00205223 0.5 -2.15 -0.8 -3.97569e-15 -3.18055e-15 3.37934e-15 0 -7.75 -0.2 54.5107 5.87806 -6.97035 0 -3.8 0 36.9422 0.0051313 -0.00249762 2.27374e-13 -3.4 0 26.2398 -0.00236578 -0.00400762 0.75 -1.75 -1.85 -3.97569e-15 -3.18055e-15 3.37934e-15 0 -7.15 -1 68.7789 -7.2686 -1.55704 0 -3 2.84217e-14 52.4076 -0.00260012 -0.00118116 2.27374e-13 -2.35 0 36.1818 -0.00148252 0.000689446 8 0 2.27374e-13 -23.6485 -47.403 -26.5623 -2.84217e-14 -45 -1 1.35759 57.73 -2.6787 0 -41 -2 -0.800434 1.07641 10.0455 -5.68434e-14 -7.5 12.5 8.493e-19 0 -0 2.84217e-14 6.93889e-18 4 0.105394 -1.92377 41.4692 -8 0 0 -14.212 -53.3188 -15.1597 2.84217e-14 -45 -1 -12.0177 74.2154 16.5897 -2.84217e-14 -41 -2 0.968229 3.42164 3.28927 0 -7.5 12.5 2.77265e-16 -11.1667 4.05241e-16 0 0 4 -7.94233 9.39506 44.1332 
-261.37 72.533 1591.17 -1.46951 7.81224 -176.283 0 8 -2.27374e-13 4.30803 11.2576 -12.8663 8.52651e-14 8 0 0.286147 8.66776 -0.592495 2.84217e-14 8 0 0.129707 4.33598 -0.290378 0 8 0 0.129301 4.32355 -0.289528 -5.68434e-14 17 0 -1.94498 9.97109 -1.04925 0 10.8 0 -4.42616 23.4497 -1.97667 5 17 0 -5.7273 -5.12088 7.94526 6.45 0 0 -0.53153 -1.58123 1.28091 6.45 0 0 69.506 14.5515 6.13822 0 -32.4 -2 -102.339 -62.3415 -107.119 1.13687e-13 -25.65 2 10.6459 -13.495 -23.8421 -0.5 -1.5 2.65 -30.4581 -54.5756 113.871 0 -3.8 3.7 -0.0356003 45.0516 6.75471e-05 0 -3 2.7 -0.00947544 67.5241 0.00843091 0 -1.9 1.6 0 1.59028e-15 -0 -1.13687e-13 -8.3 1.9 -55.662 13.4565 8.41333 -2.27374e-13 -4.5 -5.68434e-14 -74.1776 0.00457621 -0.00258573 0 -3.4 5.68434e-14 -57.0593 -0.00069264 -0.0090491 -0.25 -2.2 0.4 0 1.59028e-15 -0 0 -8.3 1 -55.7785 11.415 8.3642 -2.27374e-13 -4.65 -5.68434e-14 -76.0744 -0.00139431 9.5469e-05 0 -3.3 5.68434e-14 -90.0002 -1.86858e-14 -4.17448e-15 -0.5 -2.15 -0.8 0 1.59028e-15 -0 0 -7.75 -0.2 -80.217 -2.04651 10.5881 0 -3.8 0 -20.4381 -0.00307189 0.00432684 0 -3.4 0 -90.0002 -1.45113e-14 2.68359e-15 -0.75 -1.75 -1.85 0 1.59028e-15 -0 -1.13687e-13 -7.15 -1 -61.7103 10.5157 11.1519 2.27374e-13 -3 -5.68434e-14 -77.2599 0.0138775 5.97058e-05 -1.13687e-13 -2.35 0 -90.0002 1.78906e-15 -4.37326e-15 -5 17 4.54747e-13 7.01666 -2.04501 -1.42898 -6.45 0 0 -1.81264 0.160106 -1.4424 -6.45 0 0 -53.3968 -27.3725 8.21893 0 -32.4 -2 100.308 -69.7362 87.3081 -1.13687e-13 -25.65 2 -42.0252 13.9046 10.8402 0.5 -1.5 2.65 4.60923 1.82317 -5.95147 0 -3.8 3.7 0.264577 7.9184 -0.117069 1.42109e-14 -3 2.7 0.0199828 11.2565 -0.0312532 1.42109e-14 -1.9 1.6 -7.95139e-16 1.59028e-15 -3.97569e-15 2.84217e-14 -8.3 1.9 13.5742 16.1613 -2.12024 0 -4.5 -2.27374e-13 2.01758e-08 -0.0010963 0.00105445 0 -3.4 0 1.50267e-08 -0.000834929 0.00103118 0.25 -2.2 0.4 -7.95139e-16 1.59028e-15 -3.97569e-15 1.42109e-14 -8.3 1 22.512 13.786 -3.96137 1.13687e-13 -4.65 -1.13687e-13 25.5349 0.00350205 -0.00267563 0 -3.3 -1.13687e-13 19.3874 0.00907141 -0.00209695 0.5 -2.15 -0.8 -7.95139e-16 1.59028e-15 -3.97569e-15 1.42109e-14 -7.75 -0.2 54.5054 5.89142 -6.97261 0 -3.8 5.68434e-14 36.9217 0.00515012 -0.00253118 2.27374e-13 -3.4 0 26.2276 -0.00240863 -0.00403675 0.75 -1.75 -1.85 -7.95139e-16 1.59028e-15 -3.97569e-15 -2.84217e-14 -7.15 -1 68.7477 -7.26168 -1.55503 2.27374e-13 -3 0 52.4568 -0.00266948 -0.00117023 0 -2.35 -8.52651e-14 36.217 -0.00145441 0.000763221 8 0 -2.27374e-13 -23.6074 -47.4196 -26.4931 0 -45 -1 1.36605 57.7264 -2.69561 0 -41 -2 -0.785186 1.08028 10 0 -7.5 12.5 -2.71473e-19 2.42657e-20 -1.59028e-15 -2.84217e-14 0 4 0.100131 -1.92398 41.4695 -8 0 -2.27374e-13 -14.2163 -53.3233 -15.1641 0 -45 -1 -12.0197 74.2143 16.5926 0 -41 -2 0.968346 3.42142 3.28941 0 -7.5 12.5 3.40291e-16 -11.1465 -8.10426e-16 5.68434e-14 2.84217e-14 4 -7.94214 9.37532 44.1302 
-261.358 72.5333 1591.18 -1.4684 7.80836 -176.284 5.68434e-14 8 -2.27374e-13 4.31087 11.2583 -12.8754 0 8 0 0.284638 8.6694 -0.586062 0 8 0 0.128813 4.33632 -0.28715 0 8 0 0.12841 4.32389 -0.28631 5.68434e-14 17 0 -1.932 9.94022 -1.05646 2.84217e-14 10.8 2.27374e-13 -4.39221 23.3765 -1.99949 5 17 0 -5.72967 -5.12009 7.94141 6.45 0 -2.27374e-13 -0.531439 -1.58206 1.27521 6.45 0 0 69.4285 14.4965 6.12101 2.84217e-14 -32.4 -2 -102.22 -62.433 -107.068 -1.13687e-13 -25.65 2 10.592 -13.4829 -23.8533 -0.5 -1.5 2.65 -30.4725 -54.5666 113.871 2.84217e-14 -3.8 3.7 -0.0355611 45.0589 3.86983e-05 2.84217e-14 -3 2.7 -0.0094632 67.5988 0.00839936 0 -1.9 1.6 -3.18055e-15 1.59028e-15 -7.95139e-16 -1.13687e-13 -8.3 1.9 -55.7211 13.4524 8.42219 0 -4.5 0 -74.1502 0.00459451 -0.00260554 0 -3.4 5.68434e-14 -57.0228 -0.000679123 -0.00906355 -0.25 -2.2 0.4 -3.18055e-15 1.59028e-15 -7.95139e-16 1.13687e-13 -8.3 1 -55.8217 11.4142 8.37045 2.27374e-13 -4.65 -5.68434e-14 -76.0781 -0.00140628 0.000130435 -1.13687e-13 -3.3 0 -90.0002 -9.24349e-15 1.92821e-14 -0.5 -2.15 -0.8 -3.18055e-15 1.59028e-15 -7.95139e-16 0 -7.75 -0.2 -80.2601 -2.05671 10.5882 0 -3.8 -5.68434e-14 -20.4863 -0.00308514 0.00437269 0 -3.4 0 -90.0002 -2.90226e-14 1.03368e-14 -0.75 -1.75 -1.85 -3.18055e-15 1.59028e-15 -7.95139e-16 1.13687e-13 -7.15 -1 -61.7913 10.4953 11.1632 2.27374e-13 -3 -5.68434e-14 -77.2331 0.0139028 5.13595e-05 0 -2.35 0 -90.0002 8.94531e-15 2.26615e-14 -5 17 0 6.99939 -2.05346 -1.44819 -6.45 0 0 -1.81169 0.161012 -1.43474 -6.45 0 0 -53.3609 -27.417 8.20515 0 -32.4 -2 100.233 -69.746 87.2589 0 -25.65 2 -42.0499 13.8821 10.9063 0.5 -1.5 2.65 4.62736 1.79532 -5.95359 0 -3.8 3.7 0.264778 7.99874 -0.117144 4.26326e-14 -3 2.7 0.0199988 11.2351 -0.031375 1.42109e-14 -1.9 1.6 -1.59028e-15 0 -6.16232e-15 0 -8.3 1.9 13.6275 16.2084 -2.13479 0 -4.5 0 2.03104e-08 -0.00110256 0.00105545 -5.68434e-14 -3.4 0 1.51383e-08 -0.000840332 0.00103216 0.25 -2.2 0.4 -1.59028e-15 0 -6.16232e-15 0 -8.3 1 22.5312 13.8228 -3.9708 0 -4.65 0 25.4777 0.00348132 -0.00271821 0 -3.3 0 19.3521 0.00913216 -0.0021426 0.5 -2.15 -0.8 -1.59028e-15 0 -6.16232e-15 -1.42109e-14 -7.75 -0.2 54.5004 5.90816 -6.97454 2.27374e-13 -3.8 0 36.9021 0.00516884 -0.00256519 0 -3.4 5.68434e-14 26.2158 -0.00245184 -0.00406725 0.75 -1.75 -1.85 -1.59028e-15 0 -6.16232e-15 -1.42109e-14 -7.15 -1 68.7101 -7.25315 -1.55299 0 -3 5.68434e-14 52.5163 -0.00273961 -0.00115977 2.27374e-13 -2.35 -5.68434e-14 36.2596 -0.00142666 0.000837122 8 0 0 -23.561 -47.4382 -26.4156 5.68434e-14 -45 -1 1.37329 57.7197 -2.71027 2.84217e-14 -41 -2 -0.768165 1.08688 9.94187 -2.84217e-14 -7.5 12.5 1.61064e-18 -1.94126e-19 1.59028e-15 0 0 4 0.0969134 -1.92624 41.4698 -8 5.68434e-14 -2.27374e-13 -14.2193 -53.3283 -15.167 0 -45 -1 -12.0216 74.2132 16.5955 -2.84217e-14 -41 -2 0.968333 3.42123 3.28958 0 -7.5 12.5 -6.36927e-17 -11.1224 1.21554e-15 0 0 4 -7.9418 9.35028 44.1263 
